<svg width="700" height="500" xmlns="http://www.w3.org/2000/svg">
  <rect width="700" height="500" fill="#faf9f6"/>
  <ellipse cx="350" cy="460" rx="120" ry="15" fill="#000000" opacity="0.08"/>
  <ellipse cx="350" cy="200" rx="80" ry="90" fill="#f4a460"/>
  <ellipse cx="330" cy="185" rx="18" ry="22" fill="#e89450"/>
  <ellipse cx="370" cy="185" rx="18" ry="22" fill="#e89450"/>
  <ellipse cx="325" cy="190" rx="10" ry="12" fill="#fff"/>
  <ellipse cx="365" cy="190" rx="10" ry="12" fill="#fff"/>
  <circle cx="325" cy="193" r="6" fill="#2c1810"/>
  <circle cx="365" cy="193" r="6" fill="#2c1810"/>
  <circle cx="323" cy="191" r="2" fill="#fff" opacity="0.8"/>
  <circle cx="363" cy="191" r="2" fill="#fff" opacity="0.8"/>
  <path d="M 335 210 Q 350 213 365 210" stroke="#d88040" stroke-width="1.5" fill="none"/>
  <path d="M 345 215 Q 350 218 355 215" stroke="#c86030" stroke-width="1" fill="none"/>
  <ellipse cx="310" cy="195" rx="12" ry="8" fill="#f4a460" opacity="0.6"/>
  <ellipse cx="390" cy="195" rx="12" ry="8" fill="#f4a460" opacity="0.6"/>
  <path d="M 290 150 Q 350 130 410 150" fill="#654321" stroke="#4a3010" stroke-width="2"/>
  <rect x="270" y="150" width="160" height="90" fill="#2c3e50" stroke="#1a252f" stroke-width="3" rx="15"/>
  <rect x="275" y="155" width="70" height="80" fill="#1a1a2a" stroke="#4a90e2" stroke-width="2" rx="8"/>
  <rect x="355" y="155" width="70" height="80" fill="#1a1a2a" stroke="#4a90e2" stroke-width="2" rx="8"/>
  <circle cx="310" cy="195" r="25" fill="#4a90e2" opacity="0.3"/>
  <circle cx="390" cy="195" r="25" fill="#4a90e2" opacity="0.3"/>
  <circle cx="305" cy="190" r="8" fill="#00d9ff" opacity="0.6"/>
  <circle cx="385" cy="190" r="8" fill="#00d9ff" opacity="0.6"/>
  <g opacity="0.4">
    <rect x="280" y="162" width="3" height="3" fill="#00d9ff"/>
    <rect x="288" y="162" width="3" height="3" fill="#00d9ff"/>
    <rect x="296" y="162" width="3" height="3" fill="#00d9ff"/>
    <rect x="360" y="162" width="3" height="3" fill="#00d9ff"/>
    <rect x="368" y="162" width="3" height="3" fill="#00d9ff"/>
    <rect x="376" y="162" width="3" height="3" fill="#00d9ff"/>
  </g>
  <rect x="320" y="145" width="60" height="8" fill="#34495e" stroke=\"#2c3e50\" stroke-width=\"1\" rx=\"3\"/>\n  <circle cx=\"330\" cy=\"149\" r=\"2\" fill=\"#e74c3c\"/>\n  <circle cx=\"340\" cy=\"149\" r=\"2\" fill=\"#2ecc71\"/>\n  <rect x=\"260\" y=\"180\" width=\"15\" height=\"30\" fill=\"#34495e\" stroke=\"#2c3e50\" stroke-width=\"2\" rx=\"8\"/>\n  <rect x=\"425\" y=\"180\" width=\"15\" height=\"30\" fill=\"#34495e\" stroke=\"#2c3e50\" stroke-width=\"2\" rx=\"8\"/>\n  <g opacity=\"0.2\">\n    <line x1=\"345\" y1=\"170\" x2=\"355\" y2=\"170\" stroke=\"#fff\" stroke-width=\"1\"/>\n    <line x1=\"345\" y1=\"175\" x2=\"355\" y2=\"175\" stroke=\"#fff\" stroke-width=\"1\"/>\n  </g>\n  <rect x=\"320\" y=\"290\" width=\"60\" height=\"100\" fill=\"#ff6b6b\" stroke=\"#e74c3c\" stroke-width=\"2\" rx=\"8\"/>\n  <rect x=\"295\" y=\"330\" width=\"30\" height=\"60\" fill=\"#ffb366\" stroke=\"#ff9933\" stroke-width=\"2\" rx=\"5\"/>\n  <rect x=\"375\" y=\"330\" width=\"30\" height=\"60\" fill=\"#ffb366\" stroke=\"#ff9933\" stroke-width=\"2\" rx=\"5\"/>\n  <ellipse cx=\"310\" cy=\"390\" rx=\"12\" ry=\"16\" fill=\"#f4a460\"/>\n  <ellipse cx=\"390\" cy=\"390\" rx=\"12\" ry=\"16\" fill=\"#f4a460\"/>\n  <rect x=\"305\" y=\"390\" width=\"15\" height=\"50\" fill=\"#4a90e2\" stroke=\"#3a80d2\" stroke-width=\"2\" rx=\"3\"/>\n  <rect x=\"380\" y=\"390\" width=\"15\" height=\"50\" fill=\"#4a90e2\" stroke=\"#3a80d2\" stroke-width=\"2\" rx=\"3\"/>\n  <rect x=\"300\" y=\"440\" width=\"25\" height=\"20\" fill=\"#2c3e50\" stroke=\"#1a252f\" stroke-width=\"2\" rx=\"3\"/>\n  <rect x=\"375\" y=\"440\" width=\"25\" height=\"20\" fill=\"#2c3e50\" stroke=\"#1a252f\" stroke-width=\"2\" rx=\"3\"/>\n  <path d=\"M 325 332 L 330 345 L 320 345 Z\" fill=\"#fff\" opacity=\"0.3\"/>\n  <text x=\"350\" y=\"35\" font-family=\"Arial, sans-serif\" font-size=\"20\" font-weight=\"bold\" text-anchor=\"middle\" fill=\"#2c3e50\">Criança com HMD</text>\n  <text x=\"350\" y=\"485\" font-family=\"Arial, sans-serif\" font-size=\"14\" text-anchor=\"middle\" fill=\"#666\" font-style=\"italic\">Child using Head-Mounted Display</text>\n</svg>
