<svg width="700" height="500" xmlns="http://www.w3.org/2000/svg">
  <rect width="700" height="500" fill="#0a0e27"/>
  
  <defs>
    <radialGradient id="earthGlow">
      <stop offset="0%" style="stop-color:#4a90e2;stop-opacity:0.6"/>
      <stop offset="100%" style="stop-color:#1e3a8a;stop-opacity:0"/>
    </radialGradient>
  </defs>
  
  <circle cx="100" cy="80" r="2" fill="#fff" opacity="0.9"/>
  <circle cx="180" cy="60" r="1.5" fill="#fff" opacity="0.7"/>
  <circle cx="650" cy="90" r="2" fill="#fff" opacity="0.8"/>
  <circle cx="580" cy="70" r="1" fill="#fff" opacity="0.6"/>
  <circle cx="150" cy="130" r="1.5" fill="#fff" opacity="0.8"/>
  <circle cx="620" cy="140" r="1" fill="#fff" opacity="0.7"/>
  <circle cx="280" cy="100" r="1.5" fill="#fff" opacity="0.6"/>
  <circle cx="480" cy="85" r="2" fill="#fff" opacity="0.9"/>
  <circle cx="420" cy="120" r="1" fill="#fff" opacity="0.5"/>
  
  <ellipse cx="150" cy="400" rx="80" ry="15" fill="url(#earthGlow)" opacity="0.5"/>
  <circle cx="150" cy="400" r="60" fill="#1e3a8a"/>
  <path d="M 110 380 Q 130 400 110 420" fill="#2563eb" opacity="0.6"/>
  <path d="M 170 380 Q 150 400 170 420" fill="#1e40af" opacity="0.6"/>
  <circle cx="135" cy="395" r="8" fill="#fff" opacity="0.3"/>
  
  <rect x="280" y="200" width="280" height="180" fill="#1a1a2a" stroke="#4a90e2" stroke-width="3" rx="15"/>
  <rect x="290" y="210" width="120" height="160" fill="#0a0a1a" stroke="#00d9ff" stroke-width="2" rx="10"/>
  <rect x="440" y="210" width="120" height="160" fill="#0a0a1a" stroke="#00d9ff" stroke-width="2" rx="10"/>
  
  <circle cx="350" cy="290" r="40" fill="#1a1a3a" stroke="#4a90e2" stroke-width="2"/>
  <circle cx="500" cy="290" r="40" fill="#1a1a3a" stroke="#4a90e2" stroke-width="2"/>
  
  <circle cx="350" cy="290" r="28" fill="#003366" opacity="0.5"/>
  <circle cx="500" cy="290" r="28" fill="#003366" opacity="0.5"/>
  
  <circle cx="345" cy="285" r="10" fill="#00d9ff" opacity="0.7"/>
  <circle cx="495" cy="285" r="10" fill="#00d9ff" opacity="0.7"/>
  
  <g fill="#dc2626">
    <circle cx="305" cy="230" r="5"/>
    <circle cx="395" cy="230" r="5"/>
    <circle cx="455" cy="230" r="5"/>
    <circle cx="545" cy="230" r="5"/>
  </g>
  
  <g fill="#10b981">
    <rect x="302" y="350" width="8" height="8"/>
    <rect x="340" y="350" width="8" height="8"/>
    <rect x="452" y="350" width="8" height="8"/>
    <rect x="490" y="350" width="8" height="8"/>
  </g>
  
  <g opacity="0.4" fill="#f59e0b">
    <rect x="295" y="220" width="4" height="4"/>
    <rect x="315" y="220" width="4" height="4"/>
    <rect x="335" y="220" width="4" height="4"/>
    <rect x="355" y="220" width="4" height="4"/>
    <rect x="445" y="220" width="4" height="4"/>
    <rect x="465" y="220" width="4" height="4"/>
    <rect x="485" y="220" width="4" height="4"/>
    <rect x="505" y="220" width="4" height="4"/>
  </g>
  
  <rect x="380" y="185" width="80" height="10" fill="#2c3e50" stroke="#1a252f" stroke-width="2" rx="3"/>
  <g>
    <circle cx="395" cy="190" r="3" fill="#dc2626"/>
    <circle cx="410" cy="190" r="3" fill="#10b981"/>
    <circle cx="425" cy="190" r="3" fill="#f59e0b"/>
  </g>
  
  <rect x="260" y="280" width="25" height="50" fill="#2c3e50" stroke="#1a252f" stroke-width="2" rx="8"/>
  <rect x="560" y="280" width="25" height="50" fill="#2c3e50" stroke="#1a252f" stroke-width="2" rx="8"/>
  
  <rect x="380" y="380" width="80" height="25" fill="#1e3a8a" stroke="#1e293b" stroke-width="2" rx="5"/>
  <g opacity="0.6">
    <rect x="390" y="387" width="4" height="10" fill="#00d9ff"/>
    <rect x="400" y="387" width="4" height="10" fill="#00d9ff"/>
    <rect x="410" y="387" width="4" height="10" fill="#00d9ff"/>
    <rect x="420" y="387" width="4" height="10" fill="#00d9ff"/>
    <rect x="430" y="387" width="4" height="10" fill="#00d9ff"/>
    <rect x="440" y="387" width="4" height="10" fill="#00d9ff"/>
  </g>
  
  <g transform="translate(500, 420)">
    <path d="M -30 0 L -20 -15 L -10 0 L 0 -20 L 10 0 L 20 -15 L 30 0" stroke="#dc2626" stroke-width="2" fill="none"/>
    <text x="0" y="20" font-family="monospace" font-size="10" fill="#dc2626" text-anchor="middle">NASA</text>
  </g>
  
  <text x="420" y="50" font-family="Arial, sans-serif" font-size="24" font-weight="bold" text-anchor="middle" fill="#00d9ff">NASA HMD - VIEW PROJECT</text>
  <text x="420" y="485" font-family="Arial, sans-serif" font-size="14" text-anchor="middle" fill="#4a90e2" font-style="italic">Virtual Interface Environment Workstation</text>
</svg>
