<svg width="700" height="500" xmlns="http://www.w3.org/2000/svg">
  <rect width="700" height="500" fill="#f0f0f5"/>
  <ellipse cx="350" cy="460" rx="150" ry="20" fill="#000000" opacity="0.1"/>
  <rect x="320" y="50" width="60" height="200" fill="#7f8c8d" stroke="#5d6d7e" stroke-width="2"/>
  <rect x="300" y="30" width="100" height="20" fill="#4a4a4a" stroke="#2a2a2a" stroke-width="2" rx="3"/>
  <line x1="350" y1="50" x2="200" y2="220" stroke="#5d6d7e" stroke-width="4"/>
  <line x1="350" y1="50" x2="500" y2="220" stroke="#5d6d7e" stroke-width="4"/>
  <rect x="150" y="210" width="100" height="20" fill="#95a5a6" stroke="#7f8c8d" stroke-width="2" rx="3"/>
  <rect x="450" y="210" width="100" height="20" fill="#95a5a6" stroke="#7f8c8d" stroke-width="2" rx="3"/>
  <line x1="200" y1="230" x2="280" y2="280" stroke="#5d6d7e" stroke-width="3"/>
  <line x1="500" y1="230" x2="420" y2="280" stroke="#5d6d7e" stroke-width="3"/>
  <rect x="250" y="270" width="200" height="80" fill="#2c3e50" stroke="#1a252f" stroke-width="3" rx="10"/>
  <ellipse cx="300" cy="310" rx="30" ry="35" fill="#34495e" stroke="#1a252f" stroke-width="2"/>
  <ellipse cx="400" cy="310" rx="30" ry="35" fill="#34495e" stroke="#1a252f" stroke-width="2"/>
  <circle cx="300" cy="310" r="18" fill="#1a1a2a" stroke="#4a90e2" stroke-width="2"/>
  <circle cx="400" cy="310" r="18" fill="#1a1a2a" stroke="#4a90e2" stroke-width="2"/>
  <circle cx="295" cy="305" r="6" fill="#4a90e2" opacity="0.7"/>
  <circle cx="395" cy="305" r="6" fill="#4a90e2" opacity="0.7"/>
  <g opacity="0.3">
    <line x1="270" y1="285" x2="280" y2="285" stroke="#00d9ff" stroke-width="1"/>
    <line x1="270" y1="295" x2="280" y2="295" stroke="#00d9ff" stroke-width="1"/>
    <line x1="420" y1="285" x2="430" y2="285" stroke="#00d9ff" stroke-width="1"/>
    <line x1="420" y1="295" x2="430" y2="295" stroke="#00d9ff" stroke-width="1"/>
  </g>
  <rect x="330" y="335" width="40" height="10" fill="#95a5a6" stroke="#7f8c8d" stroke-width="1" rx="2"/>
  <ellipse cx="350" cy="390" rx="30" ry="40" fill="#d4a373"/>
  <ellipse cx="345" cy="385" rx="8" ry="10" fill="#c49563"/>
  <ellipse cx="355" cy="385" rx="8" ry="10" fill="#c49563"/>
  <rect x="330" y="350" width="40" height="40" fill="#e8d4b8" stroke="#d4a373" stroke-width="2" rx="5"/>
  <line x1="340" y1="385" x2="340" y2="395" stroke="#000" stroke-width="1"/>
  <line x1="360" y1="385" x2="360" y2="395" stroke="#000" stroke-width="1"/>
  <path d="M 345 405 Q 350 408 355 405" stroke="#000" stroke-width="1" fill="none"/>
  <rect x="310" y="430" width="80" height="30" fill="#5d6d7e" stroke="#4a5a6e" stroke-width="2" rx="3"/>
  <rect x="310" y="460" width="30" height="15" fill="#3a3a3a" stroke="#2a2a2a" stroke-width="1" rx="2"/>
  <rect x="360" y="460" width="30" height="15" fill="#3a3a3a" stroke="#2a2a2a" stroke-width="1" rx="2"/>
  <text x="350" y="30" font-family="Arial, sans-serif" font-size="22" font-weight="bold" text-anchor="middle" fill="#2c3e50">SWORD OF DAMOCLES</text>
  <text x="350" y="490" font-family="Arial, sans-serif" font-size="15" text-anchor="middle" fill="#555" font-style="italic">Ivan Sutherland, 1968 - First HMD</text>
</svg>
